# xmcd
#
# Track frame offsets: 
#        150
#        11975
#        24756
#        38260
#        53240
#        65423
#        79221
#        92455
#        105558
#        119173
#        132321
#        144965
#        157855
#        170747
#        183818
#        197298
#        210966
#        224289
#        236568
#        249511
#        262960
#        276504
#        290050
#        302121
#        316096
#        328997
#
# Disc length: 4578 seconds
#
# Revision: 0
# Processed by: cddbd v1.5.2PL0 Copyright (c) Steve Scherf et al.
# Submitted via: ExactAudioCopy v0.99pb5
#
DISCID=6b11e01a
DTITLE=Barbara Demick - Nothing to Envy [2 of 10]
DYEAR=2010
DGENRE=Audiobook
TTITLE0=02-01
TTITLE1=02-02
TTITLE2=02-03
TTITLE3=02-04
TTITLE4=02-05
TTITLE5=02-06
TTITLE6=02-07
TTITLE7=02-08
TTITLE8=02-09
TTITLE9=02-10
TTITLE10=02-11
TTITLE11=02-12
TTITLE12=02-13
TTITLE13=02-14
TTITLE14=02-15
TTITLE15=02-16
TTITLE16=02-17
TTITLE17=02-18
TTITLE18=02-19
TTITLE19=02-20
TTITLE20=02-21
TTITLE21=02-22
TTITLE22=02-23
TTITLE23=02-24
TTITLE24=02-25
TTITLE25=02-26
EXTD=
EXTT0=
EXTT1=
EXTT2=
EXTT3=
EXTT4=
EXTT5=
EXTT6=
EXTT7=
EXTT8=
EXTT9=
EXTT10=
EXTT11=
EXTT12=
EXTT13=
EXTT14=
EXTT15=
EXTT16=
EXTT17=
EXTT18=
EXTT19=
EXTT20=
EXTT21=
EXTT22=
EXTT23=
EXTT24=
EXTT25=
PLAYORDER=
